<svg width="170" height="170" viewBox="0 0 170 170" fill="none" xmlns="http://www.w3.org/2000/svg">
  <path d="M85 5L139.48 22.78L165 69.15L155.27 125.43L110.52 161.72L52.11 160.35L10.32 118.49L5 61.79L36.73 18.76L85 5Z" fill="#0072F0"/>
  <path d="M85 5L139.48 22.78L165 69.15L155.27 125.43L110.52 161.72L52.11 160.35L10.32 118.49L5 61.79L36.73 18.76L85 5Z" stroke="#8FC4FF" stroke-width="6"/>
  <path d="M85 16L132.35 31.48L154.34 71.14L145.86 119.44L107.38 150.96L56.86 149.86L20.81 113.76L16.19 65.48L43.91 27.31L85 16Z" fill="#0072F0"/>
  <path d="M33.15 55.72C39.36 49.8 47.22 46.84 56.72 46.84C63.41 46.84 69.08 48.42 73.71 51.57C78.34 54.73 81.49 59.12 83.16 64.76H68.25C67.07 61.93 65.19 59.76 62.61 58.24C60.09 56.65 57.17 55.86 53.86 55.86C48.51 55.86 44.19 57.72 40.88 61.43C37.57 65.08 35.91 70 35.91 76.19C35.91 82.38 37.57 87.33 40.88 91.04C44.19 94.69 48.51 96.51 53.86 96.51C57.17 96.51 60.09 95.76 62.61 94.26C65.19 92.67 67.07 90.47 68.25 87.67H83.16C81.49 93.31 78.34 97.7 73.71 100.85C69.08 103.95 63.41 105.49 56.72 105.49C47.22 105.49 39.36 102.57 33.15 96.72C26.99 90.8 23.91 83.96 23.91 76.19C23.91 68.36 26.99 61.53 33.15 55.72Z" fill="white"/>
  <path d="M91.02 58.84C95.7 54.16 101.54 51.82 108.53 51.82C115.52 51.82 121.33 54.16 125.95 58.84C130.64 63.47 132.98 69.29 132.98 76.29C132.98 83.29 130.61 89.17 125.86 93.94C121.18 98.63 115.35 100.97 108.36 100.97C101.37 100.97 95.55 98.63 90.93 93.94C86.31 89.17 84 83.29 84 76.29C84 69.29 86.34 63.47 91.02 58.84ZM116.97 66.34C114.63 63.92 111.77 62.71 108.36 62.71C104.96 62.71 102.06 63.92 99.67 66.34C97.34 68.7 96.17 72.01 96.17 76.29C96.17 80.51 97.31 83.82 99.58 86.24C101.91 88.6 104.83 89.78 108.36 89.78C111.83 89.78 114.72 88.57 117.05 86.15C119.45 83.73 120.65 80.44 120.65 76.29C120.65 72.07 119.42 68.75 116.97 66.34Z" fill="white"/>
  <path d="M35.77 113.28H48.89L51.01 120.03C52.86 117.83 55.23 116.02 58.12 114.59C61.07 113.1 64.4 112.36 68.12 112.36V126.09H64.56C60.16 126.09 56.82 127.11 54.56 129.14C52.3 131.1 51.16 134.57 51.16 139.52V158.74H35.77V113.28Z" fill="white"/>
  <path d="M74.78 119.31C79.17 114.7 84.58 112.39 91.03 112.39C97.47 112.39 102.45 114.5 105.96 118.73V113.28H121.35V158.74H105.96V153.29C102.38 157.52 97.37 159.64 90.92 159.64C84.54 159.64 79.17 157.29 74.78 152.58C70.45 147.8 68.28 141.88 68.28 134.83C68.28 127.84 70.45 122 74.78 119.31ZM102.76 123.93C100.63 121.71 97.93 120.6 94.65 120.6C91.37 120.6 88.64 121.68 86.46 123.85C84.33 126.02 83.27 129.02 83.27 132.84C83.27 136.67 84.33 139.74 86.46 142.05C88.64 144.3 91.37 145.43 94.65 145.43C97.93 145.43 100.63 144.32 102.76 142.1C104.95 139.87 106.04 136.78 106.04 132.84C106.04 128.97 104.95 125.99 102.76 123.93Z" fill="white"/>
</svg>
