<svg width="820" height="620" viewBox="0 0 820 620" fill="none" xmlns="http://www.w3.org/2000/svg">
  <rect width="820" height="620" rx="34" fill="#0A0757"/>
  <rect x="42" y="44" width="736" height="532" rx="30" fill="#11188C"/>
  <rect x="88" y="96" width="190" height="112" rx="24" fill="white" fill-opacity="0.1"/>
  <rect x="316" y="96" width="190" height="112" rx="24" fill="white" fill-opacity="0.1"/>
  <rect x="544" y="96" width="190" height="112" rx="24" fill="white" fill-opacity="0.1"/>
  <rect x="164" y="286" width="492" height="184" rx="28" fill="white" fill-opacity="0.08"/>
  <circle cx="183" cy="152" r="20" fill="#9FB0FF"/>
  <circle cx="411" cy="152" r="20" fill="#9FB0FF"/>
  <circle cx="639" cy="152" r="20" fill="#9FB0FF"/>
  <path d="M278 152H316" stroke="#C6D0FF" stroke-width="8" stroke-linecap="round"/>
  <path d="M506 152H544" stroke="#C6D0FF" stroke-width="8" stroke-linecap="round"/>
  <path d="M411 208V255" stroke="#C6D0FF" stroke-width="8" stroke-linecap="round"/>
  <path d="M411 255L262 286" stroke="#C6D0FF" stroke-width="8" stroke-linecap="round"/>
  <path d="M411 255L558 286" stroke="#C6D0FF" stroke-width="8" stroke-linecap="round"/>
  <rect x="214" y="330" width="392" height="32" rx="16" fill="#C6D0FF"/>
  <rect x="214" y="382" width="236" height="24" rx="12" fill="white" fill-opacity="0.8"/>
  <rect x="214" y="426" width="318" height="24" rx="12" fill="white" fill-opacity="0.4"/>
  <rect x="550" y="382" width="56" height="56" rx="18" fill="#9FB0FF"/>
</svg>
